<?xml version="1.0" encoding="UTF-8"?><svg id="Layer_1" xmlns="http://www.w3.org/2000/svg" viewBox="0 0 308.758 87.439"><defs><style>.cls-1{fill:#ffc125;}.cls-1,.cls-2,.cls-3,.cls-4{stroke-width:0px;}.cls-2{fill:#f05b46;}.cls-3{fill:#3c496b;}.cls-4{fill:#4dbdcf;}</style></defs><path class="cls-3" d="m5.225,82.629c0,1.837.771,2.756,2.314,2.756.277,0,.539-.026.786-.078.247-.052.548-.139.903-.26.286.624.477,1.265.572,1.924-.252.096-.485.173-.702.234-.217.061-.425.106-.624.137-.199.03-.396.052-.592.065-.194.013-.396.02-.604.02-.736,0-1.384-.119-1.943-.357-.559-.238-1.026-.57-1.403-.995-.377-.424-.661-.932-.852-1.521-.191-.589-.286-1.23-.286-1.924s.1-1.337.299-1.931.487-1.107.864-1.541c.377-.433.843-.771,1.397-1.014.555-.242,1.184-.364,1.885-.364.416,0,.811.03,1.184.091.372.061.788.182,1.248.364-.018.355-.083.7-.195,1.033-.112.334-.229.626-.351.877-.174-.061-.332-.112-.475-.156-.144-.043-.279-.078-.409-.104-.131-.026-.261-.045-.391-.059-.13-.013-.269-.02-.416-.02-.702,0-1.246.236-1.631.708-.386.473-.579,1.177-.579,2.113Z"/><path class="cls-3" d="m12.141,82.642c0-.693.08-1.336.24-1.93s.407-1.107.741-1.541c.333-.434.758-.774,1.273-1.021.516-.247,1.129-.371,1.84-.371s1.321.124,1.833.371c.512.247.934.587,1.268,1.021.334.433.58.947.741,1.541.16.594.24,1.237.24,1.93s-.08,1.333-.24,1.917c-.161.585-.407,1.092-.741,1.521-.334.429-.756.763-1.268,1.001s-1.122.357-1.833.357-1.324-.119-1.84-.357-.94-.572-1.273-1.001c-.334-.429-.581-.936-.741-1.521s-.24-1.224-.24-1.917Zm5.759,0c0-1.889-.551-2.834-1.651-2.834-1.126,0-1.689.945-1.689,2.834,0,.945.137,1.649.409,2.113.273.463.695.695,1.268.695,1.109,0,1.664-.936,1.664-2.808Z"/><path class="cls-3" d="m23.984,77.962c.183-.026.379-.05.592-.072.212-.021.409-.032.592-.032.173,0,.361.011.565.032.203.022.392.045.565.072l1.846,4.836,1.911-4.836c.173-.026.349-.05.526-.072.178-.021.354-.032.526-.032.183,0,.368.011.56.032.19.022.377.045.559.072l.442,9.282c-.139.026-.293.052-.462.078s-.393.039-.669.039c-.304,0-.663-.039-1.079-.117l-.183-5.382-1.43,3.549c-.156.026-.312.048-.468.065-.156.018-.299.026-.43.026-.13,0-.264-.007-.402-.02-.139-.013-.282-.037-.43-.072l-1.273-3.497-.144,5.33c-.363.078-.71.117-1.04.117-.303,0-.654-.039-1.053-.117l.377-9.282Z"/><path class="cls-3" d="m36.477,77.962c.183-.026.379-.05.592-.072.212-.021.409-.032.592-.032.173,0,.361.011.565.032.203.022.392.045.565.072l1.846,4.836,1.911-4.836c.173-.026.349-.05.526-.072.178-.021.354-.032.526-.032.183,0,.368.011.56.032.19.022.377.045.559.072l.442,9.282c-.139.026-.293.052-.462.078s-.393.039-.669.039c-.304,0-.663-.039-1.079-.117l-.183-5.382-1.43,3.549c-.156.026-.312.048-.468.065-.156.018-.299.026-.43.026-.13,0-.264-.007-.402-.02-.139-.013-.282-.037-.43-.072l-1.273-3.497-.144,5.33c-.363.078-.71.117-1.04.117-.303,0-.654-.039-1.053-.117l.377-9.282Z"/><path class="cls-3" d="m52.22,87.426c-.702,0-1.285-.096-1.748-.286-.464-.19-.83-.466-1.099-.825-.269-.36-.457-.795-.565-1.307s-.163-1.087-.163-1.729v-5.317c.252-.035.469-.059.65-.072.182-.013.355-.02.521-.02.146,0,.31.007.487.02.178.013.392.037.644.072v5.044c0,.433.017.802.052,1.105.034.303.098.55.188.741.091.191.219.327.384.41.164.083.381.124.649.124s.487-.041.657-.124c.169-.083.299-.219.39-.41.091-.19.151-.438.182-.741s.046-.672.046-1.105v-5.044c.26-.035.479-.059.656-.072.178-.013.34-.02.487-.02.156,0,.325.007.507.02.183.013.399.037.65.072v5.317c0,.642-.054,1.218-.162,1.729s-.297.947-.565,1.307c-.27.359-.636.635-1.099.825-.464.19-1.047.286-1.749.286Z"/><path class="cls-3" d="m59.383,77.962c.19-.035.363-.061.52-.078s.308-.026.455-.026c.156,0,.318.011.487.032.169.022.314.045.436.072l3.017,5.096v-5.096c.225-.035.429-.061.61-.078.183-.018.347-.026.494-.026s.304.008.468.026c.165.018.339.043.521.078l-.013,9.282c-.087.026-.213.052-.377.078-.165.026-.343.039-.533.039-.217,0-.412-.015-.585-.045-.174-.031-.299-.054-.377-.072l-3.029-5.07v5.07c-.382.078-.729.117-1.04.117s-.663-.039-1.053-.117v-9.282Z"/><path class="cls-3" d="m71.186,87.361c-.32,0-.706-.039-1.156-.117v-9.282c.233-.035.446-.061.637-.078s.359-.026.507-.026c.156,0,.332.008.526.026.195.018.405.043.631.078v9.282c-.46.078-.841.117-1.145.117Z"/><path class="cls-3" d="m77.674,79.964h-2.172c-.077-.373-.116-.715-.116-1.027,0-.286.039-.619.116-1.001h6.644c.034.191.061.369.078.533.017.165.025.321.025.468,0,.286-.034.628-.104,1.027h-2.171v7.28c-.46.078-.841.117-1.145.117-.32,0-.706-.039-1.156-.117v-7.28Z"/><path class="cls-3" d="m90.154,77.962c.199-.035.407-.061.624-.078s.438-.026.663-.026c.147,0,.338.011.572.032.233.022.433.045.598.072l-2.899,5.967v3.315c-.459.078-.84.117-1.144.117-.32,0-.706-.039-1.157-.117v-3.315c-.226-.468-.461-.956-.708-1.462-.247-.507-.494-1.014-.741-1.521-.247-.507-.492-1.014-.734-1.521-.243-.507-.477-.995-.702-1.462.147-.026.347-.05.598-.072.252-.021.49-.032.716-.032.182,0,.383.011.604.032.221.022.413.045.578.072l1.599,3.614,1.534-3.614Z"/><path class="cls-3" d="m104.05,81.576c.364.147.691.297.981.449.29.151.54.333.748.546s.368.468.48.767c.112.299.169.661.169,1.085,0,.459-.08.873-.24,1.241-.16.369-.396.685-.709.949-.312.264-.695.468-1.15.611s-.977.214-1.566.214c-.537,0-1.012-.043-1.423-.13-.412-.086-.856-.221-1.333-.403.034-.303.096-.626.182-.969.087-.342.191-.691.312-1.046.797.347,1.49.52,2.08.52.441,0,.786-.067,1.033-.202.247-.134.371-.366.371-.695,0-.139-.026-.258-.078-.357-.053-.1-.122-.184-.208-.253-.087-.069-.185-.128-.293-.176-.108-.047-.219-.093-.331-.136l-.729-.273c-.312-.113-.596-.247-.852-.403-.256-.156-.475-.34-.656-.552s-.323-.457-.423-.734-.149-.603-.149-.975c0-.459.078-.867.234-1.222.156-.355.375-.656.656-.903s.622-.434,1.021-.559.845-.188,1.339-.188c.442,0,.869.043,1.281.13.411.087.851.212,1.319.377-.035.277-.098.583-.188.917-.092.334-.206.648-.345.942-.226-.095-.49-.195-.793-.299-.304-.104-.681-.156-1.131-.156-.139,0-.271.013-.396.039-.126.026-.238.067-.338.124-.101.057-.181.135-.241.234s-.091.223-.091.37c0,.251.082.438.247.559.165.122.359.226.585.312l.624.247Z"/><path class="cls-3" d="m114.749,82.408c0,.304-.039.642-.117,1.014h-2.509v1.846h3.263c.078.364.117.694.117.988,0,.321-.039.663-.117,1.027h-5.563v-9.347h5.485c.035.191.061.369.078.533s.026.321.026.468c0,.286-.035.628-.104,1.027h-3.185v1.43h2.509c.078.382.117.72.117,1.014Z"/><path class="cls-3" d="m118.753,77.962c.424-.043.816-.084,1.176-.124.36-.039.739-.059,1.138-.059.477,0,.953.045,1.431.136.477.091.9.25,1.273.475.373.226.676.533.91.923.234.39.351.884.351,1.482,0,.32-.036.609-.11.864-.073.256-.169.483-.286.683-.116.199-.247.373-.39.52s-.284.273-.423.377l2.028,4.004c-.208.035-.436.061-.683.078-.247.017-.47.026-.669.026-.174,0-.375-.009-.604-.026-.23-.018-.432-.043-.604-.078l-1.847-4.251.117-.065c.104-.052.219-.139.345-.26.125-.121.242-.266.351-.435.108-.169.199-.358.273-.566.073-.208.11-.424.11-.65,0-.433-.121-.75-.364-.949-.242-.199-.541-.299-.896-.299-.087,0-.161.004-.222.013s-.1.018-.116.026v7.436c-.46.078-.837.117-1.132.117-.32,0-.706-.039-1.156-.117v-9.282Z"/><path class="cls-3" d="m131.805,84.254l1.781-6.292c.199-.035.4-.061.604-.078s.418-.026.644-.026c.147,0,.329.011.546.032.217.022.407.045.572.072l-2.99,9.295c-.226.034-.436.061-.631.078-.194.018-.383.026-.565.026-.173,0-.351-.009-.532-.026-.183-.017-.399-.043-.65-.078l-2.977-9.295c.146-.026.342-.05.585-.072.242-.021.477-.032.701-.032.183,0,.382.011.599.032.217.022.407.045.572.072l1.741,6.292Z"/><path class="cls-3" d="m140.034,87.361c-.32,0-.706-.039-1.156-.117v-9.282c.233-.035.446-.061.637-.078s.359-.026.507-.026c.156,0,.332.008.526.026.195.018.405.043.631.078v9.282c-.46.078-.841.117-1.145.117Z"/><path class="cls-3" d="m147.002,82.629c0,1.837.771,2.756,2.314,2.756.277,0,.539-.026.786-.078.247-.052.548-.139.903-.26.286.624.477,1.265.572,1.924-.252.096-.485.173-.702.234-.217.061-.425.106-.624.137-.199.03-.396.052-.592.065-.194.013-.396.02-.604.02-.736,0-1.384-.119-1.943-.357-.559-.238-1.026-.57-1.403-.995-.377-.424-.661-.932-.852-1.521-.191-.589-.286-1.23-.286-1.924s.1-1.337.299-1.931.487-1.107.864-1.541c.377-.433.843-.771,1.397-1.014.555-.242,1.184-.364,1.885-.364.416,0,.811.03,1.184.091.372.061.788.182,1.248.364-.018.355-.083.7-.195,1.033-.112.334-.229.626-.351.877-.174-.061-.332-.112-.475-.156-.144-.043-.279-.078-.409-.104-.131-.026-.261-.045-.391-.059-.13-.013-.269-.02-.416-.02-.702,0-1.246.236-1.631.708-.386.473-.579,1.177-.579,2.113Z"/><path class="cls-3" d="m159.743,82.408c0,.304-.039.642-.117,1.014h-2.509v1.846h3.263c.078.364.117.694.117.988,0,.321-.039.663-.117,1.027h-5.563v-9.347h5.485c.035.191.061.369.078.533s.026.321.026.468c0,.286-.035.628-.104,1.027h-3.185v1.43h2.509c.078.382.117.72.117,1.014Z"/><path class="cls-3" d="m167.386,81.576c.364.147.691.297.981.449.29.151.54.333.748.546s.368.468.48.767c.112.299.169.661.169,1.085,0,.459-.08.873-.24,1.241-.16.369-.396.685-.709.949-.312.264-.695.468-1.15.611s-.977.214-1.566.214c-.537,0-1.012-.043-1.423-.13-.412-.086-.856-.221-1.333-.403.034-.303.096-.626.182-.969.087-.342.191-.691.312-1.046.797.347,1.49.52,2.08.52.441,0,.786-.067,1.033-.202.247-.134.371-.366.371-.695,0-.139-.026-.258-.078-.357-.053-.1-.122-.184-.208-.253-.087-.069-.185-.128-.293-.176-.108-.047-.219-.093-.331-.136l-.729-.273c-.312-.113-.596-.247-.852-.403-.256-.156-.475-.34-.656-.552s-.323-.457-.423-.734-.149-.603-.149-.975c0-.459.078-.867.234-1.222.156-.355.375-.656.656-.903s.622-.434,1.021-.559.845-.188,1.339-.188c.442,0,.869.043,1.281.13.411.087.851.212,1.319.377-.035.277-.098.583-.188.917-.092.334-.206.648-.345.942-.226-.095-.49-.195-.793-.299-.304-.104-.681-.156-1.131-.156-.139,0-.271.013-.396.039-.126.026-.238.067-.338.124-.101.057-.181.135-.241.234s-.091.223-.091.37c0,.251.082.438.247.559.165.122.359.226.585.312l.624.247Z"/><path class="cls-3" d="m179.632,87.257c-.2.034-.382.061-.547.078-.164.018-.324.026-.48.026s-.336-.011-.54-.033c-.203-.021-.431-.054-.682-.097l2.911-9.282c.226-.026.436-.047.631-.065s.393-.026.592-.026c.164,0,.345.008.539.026.195.018.418.039.67.065l2.873,9.295c-.494.078-.928.117-1.3.117-.174,0-.348-.009-.521-.026-.174-.017-.359-.043-.559-.078l-.494-1.807c-.243.069-.475.122-.695.156-.222.035-.44.052-.657.052-.199,0-.402-.015-.61-.045s-.425-.076-.65-.137l-.48,1.781Zm1.819-6.864l-.871,3.341c.147.043.286.078.416.104.13.026.265.039.403.039.147,0,.292-.011.436-.033.143-.021.292-.054.448-.098l-.832-3.354Z"/><path class="cls-3" d="m188.524,77.962c.19-.035.363-.061.52-.078s.308-.026.455-.026c.156,0,.318.011.487.032.169.022.314.045.436.072l3.017,5.096v-5.096c.225-.035.429-.061.61-.078.183-.018.347-.026.494-.026s.304.008.468.026c.165.018.339.043.521.078l-.013,9.282c-.087.026-.213.052-.377.078-.165.026-.343.039-.533.039-.217,0-.412-.015-.585-.045-.174-.031-.299-.054-.377-.072l-3.029-5.07v5.07c-.382.078-.729.117-1.04.117s-.663-.039-1.053-.117v-9.282Z"/><path class="cls-3" d="m201.758,77.78c1.638,0,2.881.41,3.73,1.229s1.274,2.039,1.274,3.659c0,1.647-.434,2.854-1.3,3.621-.867.767-2.149,1.15-3.849,1.15-.433,0-.852-.019-1.254-.058-.403-.039-.8-.084-1.189-.137v-9.282c.13-.018.294-.037.494-.059.199-.021.416-.041.649-.059.234-.017.475-.033.722-.045.247-.013.487-.02.722-.02Zm-.286,7.618c.061.008.13.013.208.013h.247c.338,0,.656-.041.955-.124.299-.082.557-.228.773-.436s.388-.489.514-.845.188-.811.188-1.365c0-.546-.064-1.001-.194-1.365-.131-.364-.302-.652-.514-.865-.213-.212-.462-.364-.748-.455-.286-.091-.585-.136-.896-.136-.174,0-.299.002-.377.006s-.13.006-.156.006v5.564Z"/><path class="cls-3" d="m220.855,87.361c-.32,0-.706-.039-1.157-.117v-3.796h-2.301v3.796c-.46.078-.841.117-1.145.117-.32,0-.706-.039-1.156-.117v-9.282c.233-.035.446-.061.637-.078s.359-.026.507-.026c.156,0,.332.008.526.026.195.018.405.043.631.078v3.445h2.301v-3.445c.234-.035.444-.061.631-.078s.357-.026.514-.026c.155,0,.331.008.526.026.194.018.405.043.63.078v9.282c-.459.078-.841.117-1.144.117Z"/><path class="cls-3" d="m230.566,82.408c0,.304-.039.642-.117,1.014h-2.509v1.846h3.263c.078.364.117.694.117.988,0,.321-.039.663-.117,1.027h-5.563v-9.347h5.485c.035.191.061.369.078.533s.026.321.026.468c0,.286-.035.628-.104,1.027h-3.185v1.43h2.509c.078.382.117.72.117,1.014Z"/><path class="cls-3" d="m236.104,87.257c-.2.034-.382.061-.547.078-.164.018-.324.026-.48.026s-.336-.011-.54-.033c-.203-.021-.431-.054-.682-.097l2.911-9.282c.226-.026.436-.047.631-.065s.393-.026.592-.026c.164,0,.345.008.539.026.195.018.418.039.67.065l2.873,9.295c-.494.078-.928.117-1.3.117-.174,0-.348-.009-.521-.026-.174-.017-.359-.043-.559-.078l-.494-1.807c-.243.069-.475.122-.695.156-.222.035-.44.052-.657.052-.199,0-.402-.015-.61-.045s-.425-.076-.65-.137l-.48,1.781Zm1.819-6.864l-.871,3.341c.147.043.286.078.416.104.13.026.265.039.403.039.147,0,.292-.011.436-.033.143-.021.292-.054.448-.098l-.832-3.354Z"/><path class="cls-3" d="m244.996,77.962c.233-.035.446-.061.637-.078s.359-.026.507-.026c.156,0,.332.008.526.026.195.018.405.043.631.078v7.28h3.003c.043.217.071.405.085.565.013.161.02.306.02.436,0,.147-.007.301-.02.461-.014.161-.042.354-.085.579h-5.304v-9.321Z"/><path class="cls-3" d="m253.927,79.964h-2.172c-.077-.373-.116-.715-.116-1.027,0-.286.039-.619.116-1.001h6.644c.034.191.061.369.078.533.017.165.025.321.025.468,0,.286-.034.628-.104,1.027h-2.171v7.28c-.46.078-.841.117-1.145.117-.32,0-.706-.039-1.156-.117v-7.28Z"/><path class="cls-3" d="m267.317,87.361c-.32,0-.706-.039-1.157-.117v-3.796h-2.301v3.796c-.46.078-.841.117-1.145.117-.32,0-.706-.039-1.156-.117v-9.282c.233-.035.446-.061.637-.078s.359-.026.507-.026c.156,0,.332.008.526.026.195.018.405.043.631.078v3.445h2.301v-3.445c.234-.035.444-.061.631-.078s.357-.026.514-.026c.155,0,.331.008.526.026.194.018.405.043.63.078v9.282c-.459.078-.841.117-1.144.117Z"/><path class="cls-3" d="m282.799,87.361c-.32,0-.706-.039-1.157-.117v-3.796h-2.301v3.796c-.46.078-.841.117-1.145.117-.32,0-.706-.039-1.156-.117v-9.282c.233-.035.446-.061.637-.078s.359-.026.507-.026c.156,0,.332.008.526.026.195.018.405.043.631.078v3.445h2.301v-3.445c.234-.035.444-.061.631-.078s.357-.026.514-.026c.155,0,.331.008.526.026.194.018.405.043.63.078v9.282c-.459.078-.841.117-1.144.117Z"/><path class="cls-3" d="m291.106,87.426c-.702,0-1.285-.096-1.748-.286-.464-.19-.83-.466-1.099-.825-.269-.36-.457-.795-.565-1.307s-.163-1.087-.163-1.729v-5.317c.252-.035.469-.059.65-.072.182-.013.355-.02.521-.02.146,0,.31.007.487.02.178.013.392.037.644.072v5.044c0,.433.017.802.052,1.105.034.303.098.55.188.741.091.191.219.327.384.41.164.083.381.124.649.124s.487-.041.657-.124c.169-.083.299-.219.39-.41.091-.19.151-.438.182-.741s.046-.672.046-1.105v-5.044c.26-.035.479-.059.656-.072.178-.013.34-.02.487-.02.156,0,.325.007.507.02.183.013.399.037.65.072v5.317c0,.642-.054,1.218-.162,1.729s-.297.947-.565,1.307c-.27.359-.636.635-1.099.825-.464.19-1.047.286-1.749.286Z"/><path class="cls-3" d="m304.847,84.553c0,.572-.104,1.044-.312,1.417s-.494.667-.857.884c-.364.217-.798.369-1.301.455-.502.086-1.049.13-1.638.13-.468,0-.889-.017-1.261-.052-.373-.035-.776-.078-1.209-.13v-9.295c.329-.052.688-.096,1.079-.13.39-.034.845-.052,1.364-.052.494,0,.956.041,1.385.124s.804.221,1.125.416c.32.195.573.455.76.78.187.325.28.734.28,1.229,0,.408-.092.778-.273,1.112-.182.333-.412.591-.689.773.2.078.393.18.579.305.187.126.351.282.494.468.143.187.258.409.344.669.087.26.131.559.131.897Zm-4.329-3.042h.363c.373,0,.663-.076.871-.228.208-.151.312-.414.312-.787,0-.182-.037-.333-.11-.455-.074-.121-.167-.216-.28-.286-.112-.069-.238-.117-.377-.143s-.272-.039-.402-.039h-.188c-.074,0-.137.004-.188.013v1.924Zm0,1.846v2.184c.061.009.136.016.228.02.091.004.21.007.357.007.164,0,.331-.018.5-.052s.323-.093.462-.175.249-.195.331-.338c.083-.143.124-.323.124-.539,0-.416-.137-.704-.41-.865-.272-.16-.626-.24-1.06-.24h-.532Z"/><path class="cls-2" d="m109.419,67.232c-1.39.213-2.645.373-3.767.481-1.123.106-2.138.16-3.047.16s-1.924-.054-3.045-.16c-1.123-.108-2.353-.268-3.688-.481V25.87c1.175-.267,2.338-.454,3.487-.561,1.148-.106,2.257-.161,3.326-.161,1.014,0,2.11.055,3.287.161,1.174.107,2.325.294,3.446.561v41.362Z"/><path class="cls-3" d="m102.606,69.374c-.946,0-2.019-.056-3.187-.167-1.166-.112-2.438-.278-3.783-.494l-1.264-.202V24.673l1.167-.266c1.229-.279,2.467-.478,3.681-.592,2.345-.216,4.365-.228,6.888,0,1.247.114,2.478.314,3.659.596l1.152.274v43.834l-1.272.195c-1.396.215-2.692.38-3.851.492-1.172.11-2.244.167-3.19.167Zm-5.233-3.432c.818.115,1.6.208,2.332.279,1.071.102,2.049.153,2.901.153s1.829-.051,2.905-.153c.742-.072,1.55-.167,2.408-.286V27.087c-.683-.125-1.38-.22-2.083-.285-2.337-.209-4.179-.2-6.339,0-.7.065-1.411.163-2.125.292v38.847Z"/><path class="cls-2" d="m133.226,25.069c2.351,0,4.702.201,7.054.601,2.352.401,4.475,1.243,6.373,2.525,1.896,1.283,3.446,3.126,4.65,5.531,1.202,2.404,1.804,5.585,1.804,9.538v23.968c-1.391.267-2.645.441-3.768.521-1.122.08-2.111.12-2.966.12-.909,0-1.924-.04-3.045-.12-1.123-.08-2.378-.254-3.768-.521v-22.524c0-2.832-.534-4.862-1.603-6.092-1.069-1.229-2.699-1.844-4.889-1.844-.589,0-1.217.055-1.884.161-.669.107-1.082.214-1.243.321v29.979c-1.39.267-2.645.441-3.767.521-1.123.08-2.111.12-2.966.12-.909,0-1.924-.04-3.047-.12-1.122-.08-2.378-.254-3.767-.521V27.874c1.87-.641,4.141-1.269,6.814-1.884,2.671-.613,6.012-.921,10.02-.921Z"/><path class="cls-3" d="m146.372,69.374c-.947,0-2.008-.042-3.152-.124-1.174-.083-2.502-.267-3.944-.544l-1.217-.234v-23.764c0-2.412-.427-4.179-1.235-5.108-.997-1.146-2.734-1.607-5.384-1.189v30.061l-1.217.234c-1.443.277-2.77.46-3.943.544-1.146.083-2.18.124-3.072.124-.946,0-2.008-.042-3.154-.124-1.175-.084-2.501-.267-3.942-.544l-1.217-.234V26.803l1.014-.348c1.901-.652,4.244-1.301,6.963-1.927,2.773-.637,6.258-.959,10.356-.959,2.421,0,4.879.209,7.306.622,2.553.436,4.895,1.365,6.961,2.762,2.105,1.424,3.838,3.478,5.151,6.103,1.302,2.604,1.962,6.039,1.962,10.209v25.207l-1.217.234c-1.444.277-2.771.46-3.944.544-1.145.083-2.179.124-3.073.124Zm-5.313-3.399c.855.137,1.651.231,2.375.283,1.074.077,2.062.116,2.938.116.823,0,1.785-.039,2.859-.116.724-.052,1.519-.146,2.375-.283v-22.709c0-3.701-.554-6.684-1.646-8.868-1.08-2.159-2.476-3.828-4.148-4.96-1.71-1.155-3.656-1.926-5.784-2.289-2.26-.384-4.549-.579-6.802-.579-3.873,0-7.131.297-9.684.883-2.147.495-4.042,1-5.649,1.508v37.014c.854.137,1.649.231,2.373.283,1.076.077,2.065.116,2.94.116.821,0,1.783-.039,2.858-.116.724-.052,1.519-.146,2.374-.283v-29.53l.676-.444c.369-.243.883-.396,1.831-.548,3.737-.596,6.438.222,8.142,2.179,1.326,1.527,1.971,3.842,1.971,7.077v21.266Z"/><path class="cls-2" d="m173.866,24.908c4.329,0,8.029.508,11.102,1.523,3.072,1.017,5.598,2.445,7.575,4.289,1.977,1.843,3.42,4.075,4.329,6.694.908,2.619,1.363,5.53,1.363,8.736,0,3.367-.469,6.414-1.403,9.138-.936,2.726-2.405,5.051-4.409,6.974-2.003,1.924-4.596,3.407-7.776,4.448-3.179,1.042-7.013,1.563-11.503,1.563-2.619,0-4.956-.094-7.013-.281-2.058-.188-4.209-.441-6.453-.761V26.031c2.244-.267,4.622-.521,7.134-.761,2.511-.241,4.862-.361,7.054-.361Zm-.641,31.903c.213,0,.493.028.842.08.347.054.869.08,1.563.08,2.992,0,5.222-.842,6.694-2.525,1.469-1.682,2.204-4.448,2.204-8.297,0-3.419-.722-5.917-2.164-7.495-1.443-1.575-3.501-2.365-6.172-2.365-.641,0-1.23.028-1.764.08-.534.054-.935.107-1.202.16v20.28Z"/><path class="cls-3" d="m173.144,69.775c-2.641,0-5.046-.097-7.148-.288-2.088-.19-4.284-.449-6.53-.77l-1.288-.184V24.698l1.323-.157c2.279-.271,4.691-.528,7.169-.765,7.633-.733,13.95-.36,18.769,1.23,3.269,1.082,6.003,2.635,8.128,4.616,2.146,2.002,3.736,4.458,4.723,7.299.96,2.768,1.446,5.872,1.446,9.229,0,3.515-.499,6.753-1.484,9.625-1.01,2.941-2.621,5.488-4.789,7.57-2.157,2.072-4.966,3.684-8.348,4.792-3.316,1.087-7.344,1.638-11.97,1.638Zm-11.967-3.85c1.747.233,3.454.425,5.09.575,2.013.182,4.326.275,6.877.275,4.308,0,8.021-.501,11.036-1.489,2.95-.966,5.374-2.348,7.203-4.105,1.821-1.748,3.177-3.895,4.029-6.379.877-2.558,1.322-5.468,1.322-8.651,0-3.021-.431-5.795-1.28-8.245-.824-2.375-2.148-4.423-3.935-6.088-1.807-1.685-4.17-3.018-7.024-3.962-4.405-1.455-10.337-1.784-17.54-1.092-1.981.189-3.919.392-5.778.604v38.559Zm14.452-7.453c-.778,0-1.365-.032-1.793-.098-.25-.038-.455-.062-.612-.062h-1.5v-23.016l1.213-.237c.298-.058.744-.12,1.339-.18.594-.058,1.236-.088,1.915-.088,3.096,0,5.544.959,7.277,2.852,1.698,1.856,2.559,4.718,2.559,8.508,0,4.263-.842,7.3-2.574,9.283-1.762,2.016-4.394,3.039-7.823,3.039Zm-.905-3.022c.218.013.511.022.905.022,2.561,0,4.381-.658,5.563-2.012,1.217-1.393,1.834-3.853,1.834-7.31,0-3.017-.596-5.197-1.771-6.482-1.157-1.263-2.814-1.877-5.065-1.877-.521,0-1.015.02-1.467.06v17.6Z"/><path class="cls-2" d="m216.751,67.232c-1.39.213-2.645.373-3.767.481-1.123.106-2.138.16-3.047.16s-1.924-.054-3.045-.16c-1.123-.108-2.353-.268-3.688-.481V25.87c1.175-.267,2.338-.454,3.487-.561,1.148-.106,2.257-.161,3.326-.161,1.014,0,2.11.055,3.287.161,1.174.107,2.325.294,3.446.561v41.362Z"/><path class="cls-3" d="m209.937,69.374c-.946,0-2.019-.056-3.187-.167-1.167-.112-2.439-.278-3.783-.494l-1.264-.202V24.673l1.168-.266c1.229-.279,2.468-.479,3.68-.592,2.346-.216,4.365-.228,6.888,0,1.249.114,2.479.315,3.659.596l1.152.274v43.834l-1.272.195c-1.396.214-2.691.38-3.85.492-1.173.11-2.246.167-3.191.167Zm-5.233-3.432c.818.115,1.599.208,2.332.279,1.071.102,2.049.153,2.901.153s1.83-.051,2.906-.153c.742-.072,1.549-.167,2.407-.286V27.087c-.683-.125-1.379-.22-2.083-.285-2.337-.209-4.179-.2-6.339,0-.699.065-1.411.163-2.125.292v38.847Z"/><path class="cls-2" d="m244.14,68.275c-3.848,0-7.121-.575-9.819-1.723-2.699-1.148-4.903-2.712-6.613-4.689-1.71-1.976-2.953-4.301-3.727-6.974-.775-2.671-1.162-5.53-1.162-8.577,0-2.938.468-5.718,1.403-8.336.935-2.618,2.325-4.89,4.169-6.814,1.843-1.924,4.127-3.446,6.853-4.569,2.725-1.123,5.877-1.684,9.459-1.684,1.869,0,3.927.214,6.172.641,2.244.429,4.701,1.176,7.374,2.244-.055.909-.161,1.764-.321,2.565-.161.802-.361,1.617-.602,2.445-.24.829-.535,1.711-.881,2.645-.349.936-.761,1.991-1.243,3.167-1.818-.748-3.5-1.295-5.05-1.644-1.551-.346-2.886-.521-4.008-.521-1.763,0-3.26.268-4.489.802-1.23.535-2.218,1.257-2.966,2.164-.748.909-1.296,1.965-1.643,3.167-.349,1.202-.521,2.445-.521,3.727,0,3.581.774,6.212,2.325,7.896,1.55,1.684,3.82,2.525,6.814,2.525h1.442v-11.784c1.335-.267,2.525-.454,3.568-.561,1.041-.106,2.044-.161,3.006-.161,1.87,0,4.088.241,6.653.722v20.361c-1.551.589-3.715,1.23-6.493,1.924s-6.012,1.042-9.699,1.042Z"/><path class="cls-3" d="m244.14,69.775c-4.031,0-7.533-.62-10.407-1.843-2.896-1.232-5.305-2.944-7.159-5.088-1.847-2.134-3.204-4.671-4.033-7.539-.812-2.793-1.223-5.82-1.223-8.994,0-3.097.501-6.071,1.489-8.841,1.004-2.808,2.518-5.28,4.5-7.347,1.979-2.066,4.457-3.721,7.365-4.918,2.894-1.192,6.269-1.796,10.03-1.796,1.951,0,4.122.225,6.452.667,2.329.446,4.903,1.228,7.651,2.325l1.006.402-.065,1.081c-.059.978-.176,1.91-.348,2.769-.166.833-.379,1.697-.632,2.569-.245.846-.553,1.77-.914,2.748-.355.952-.774,2.022-1.263,3.215l-.569,1.39-1.39-.572c-1.726-.711-3.344-1.238-4.808-1.567-1.438-.322-2.677-.485-3.679-.485-1.548,0-2.856.228-3.892.678-1.003.437-1.812,1.023-2.406,1.743-.614.746-1.071,1.63-1.358,2.627-.308,1.061-.463,2.174-.463,3.313,0,3.175.648,5.49,1.929,6.879,1.255,1.364,3.104,2.032,5.652,2.042v-11.513l1.206-.241c1.368-.274,2.616-.47,3.707-.583,1.1-.112,2.162-.168,3.16-.168,1.95,0,4.282.251,6.929.748l1.224.229v22.641l-.968.367c-1.6.607-3.841,1.272-6.662,1.977-2.889.721-6.274,1.087-10.062,1.087Zm.562-43.367c-3.368,0-6.358.528-8.888,1.57-2.52,1.038-4.653,2.457-6.342,4.22-1.688,1.761-2.98,3.874-3.841,6.281-.872,2.444-1.314,5.08-1.314,7.832,0,2.891.371,5.636,1.104,8.159.709,2.45,1.859,4.607,3.421,6.411,1.553,1.795,3.594,3.238,6.065,4.29,2.501,1.064,5.607,1.604,9.232,1.604,3.544,0,6.685-.336,9.336-.998,2.167-.541,3.962-1.052,5.356-1.525v-18.045c-1.956-.319-3.686-.481-5.152-.481-.896,0-1.857.051-2.854.153-.672.069-1.415.174-2.22.314v12.039h-2.942c-3.416,0-6.08-1.013-7.917-3.01-1.806-1.96-2.722-4.958-2.722-8.911,0-1.422.195-2.816.581-4.146.399-1.391,1.048-2.637,1.925-3.702.897-1.088,2.084-1.958,3.525-2.586,1.415-.615,3.126-.927,5.088-.927,1.238,0,2.656.183,4.335.558,1.219.274,2.521.667,3.886,1.17.247-.625.472-1.209.675-1.753.335-.908.62-1.763.846-2.54.229-.791.421-1.571.571-2.321.081-.407.147-.834.2-1.28-2.179-.817-4.215-1.409-6.065-1.763-2.144-.407-4.126-.614-5.89-.614Z"/><path class="cls-2" d="m265.976,46.791c0-3.259.441-6.238,1.323-8.937.881-2.698,2.191-5.01,3.928-6.934,1.735-1.924,3.887-3.407,6.452-4.449,2.565-1.042,5.531-1.563,8.898-1.563,3.419,0,6.413.521,8.978,1.563s4.715,2.525,6.452,4.449c1.736,1.924,3.047,4.236,3.928,6.934.881,2.699,1.323,5.678,1.323,8.937,0,3.207-.442,6.133-1.323,8.778s-2.192,4.917-3.928,6.814c-1.737,1.897-3.887,3.354-6.452,4.369s-5.559,1.523-8.978,1.523c-3.367,0-6.333-.508-8.898-1.523-2.565-1.014-4.717-2.472-6.452-4.369-1.737-1.897-3.047-4.168-3.928-6.814-.883-2.645-1.323-5.571-1.323-8.778Zm27.575,0c0-3.419-.575-6.037-1.723-7.855-1.15-1.817-2.9-2.726-5.25-2.726s-4.089.909-5.21,2.726c-1.123,1.818-1.684,4.436-1.684,7.855,0,3.367.561,5.96,1.684,7.776,1.122,1.818,2.858,2.726,5.21,2.726s4.101-.908,5.25-2.726c1.148-1.815,1.723-4.408,1.723-7.776Z"/><path class="cls-3" d="m286.578,69.775c-3.539,0-6.719-.548-9.45-1.628-2.767-1.094-5.124-2.693-7.007-4.751-1.872-2.044-3.301-4.519-4.244-7.352-.93-2.784-1.4-5.897-1.4-9.252,0-3.404.47-6.568,1.397-9.403.942-2.886,2.369-5.401,4.24-7.473,1.879-2.083,4.234-3.709,7.001-4.833,2.733-1.111,5.917-1.674,9.463-1.674,3.599,0,6.809.563,9.542,1.674,2.764,1.124,5.119,2.75,7.001,4.833,1.872,2.074,3.298,4.588,4.24,7.473.928,2.838,1.397,6.002,1.397,9.403,0,3.352-.471,6.465-1.4,9.252-.942,2.832-2.371,5.306-4.244,7.352-1.886,2.059-4.243,3.657-7.007,4.751-2.731,1.08-5.938,1.628-9.529,1.628Zm0-43.367c-3.157,0-5.961.489-8.334,1.453-2.343.952-4.329,2.32-5.902,4.064-1.589,1.758-2.805,3.91-3.616,6.395-.829,2.534-1.249,5.384-1.249,8.471,0,3.032.419,5.826,1.246,8.304.81,2.432,2.024,4.543,3.611,6.275,1.573,1.72,3.558,3.062,5.897,3.987,2.379.941,5.187,1.418,8.347,1.418,3.212,0,6.047-.477,8.426-1.418,2.338-.925,4.322-2.266,5.897-3.987,1.587-1.733,2.802-3.844,3.611-6.274.827-2.481,1.246-5.275,1.246-8.304,0-3.084-.42-5.934-1.249-8.471-.811-2.483-2.027-4.635-3.615-6.395-1.576-1.745-3.562-3.113-5.903-4.064-2.373-.964-5.203-1.453-8.413-1.453Zm0,32.385c-2.855,0-5.099-1.189-6.487-3.438-1.283-2.076-1.907-4.877-1.907-8.563,0-3.737.624-6.564,1.907-8.643,1.39-2.249,3.633-3.438,6.487-3.438s5.1,1.184,6.518,3.424c1.316,2.084,1.956,4.916,1.956,8.657,0,3.64-.658,6.525-1.956,8.577-1.416,2.24-3.67,3.424-6.518,3.424Zm0-21.083c-1.836,0-3.086.64-3.935,2.014-.969,1.569-1.46,3.947-1.46,7.067,0,3.069.491,5.42,1.46,6.987.849,1.375,2.099,2.015,3.935,2.015s3.107-.645,3.982-2.028c.989-1.564,1.491-3.911,1.491-6.974,0-3.114-.502-5.487-1.492-7.054-.875-1.383-2.14-2.027-3.981-2.027Z"/><path class="cls-3" d="m61.88,23.84c-6.409,0-12.523,2.755-16.791,7.573l-2.942,3.406-2.955-3.421c-4.248-4.804-10.361-7.559-16.776-7.559C10.056,23.838,0,33.895,0,46.255s10.056,22.417,22.417,22.417c6.409,0,12.524-2.755,16.794-7.573l2.941-3.404,2.956,3.42c4.247,4.803,10.36,7.558,16.773,7.558,12.362,0,22.418-10.056,22.418-22.417s-10.056-22.415-22.418-22.415Zm-9.823,22.443l.362-.403,3.946-4.57c1.408-1.568,3.417-2.466,5.516-2.466,4.089,0,7.414,3.324,7.414,7.411s-3.325,7.413-7.414,7.413c-2.098,0-4.106-.898-5.487-2.44l-4.336-4.945Zm-19.918.061l-.258.287-3.946,4.57c-1.408,1.566-3.418,2.466-5.518,2.466-4.088,0-7.412-3.324-7.412-7.412s3.324-7.412,7.412-7.412c2.099,0,4.108.898,5.487,2.439l4.234,5.062Z"/><path class="cls-4" d="m61.88,65.209c-5.421,0-10.59-2.329-14.167-6.374l-3.274-3.79,5.338-6.18,4.017,4.648c2.056,2.298,5.004,3.616,8.087,3.616,5.996,0,10.877-4.879,10.877-10.875s-4.881-10.874-10.877-10.874c-3.079,0-6.031,1.319-8.116,3.642l-6.246,7.232h0s-.065.001-.065.001l-10.848,12.563c-3.599,4.061-8.772,6.39-14.19,6.39-10.45,0-18.955-8.502-18.955-18.954s8.505-18.953,18.955-18.953c5.423,0,10.591,2.329,14.17,6.375l3.274,3.789-5.338,6.18-4.017-4.65c-2.057-2.298-5.003-3.615-8.088-3.615-5.996,0-10.875,4.879-10.875,10.874s4.879,10.875,10.875,10.875c3.08,0,6.031-1.318,8.118-3.641l6.243-7.231-.002-.002h.067l10.849-12.563c3.598-4.06,8.77-6.39,14.188-6.39,10.452,0,18.956,8.502,18.956,18.953s-8.504,18.954-18.956,18.954Z"/><circle class="cls-1" cx="21.828" cy="11.734" r="9.334"/><circle class="cls-1" cx="51.643" cy="16.286" r="6.869"/><path class="cls-3" d="m21.828,23.468c-6.473,0-11.735-5.264-11.735-11.734S15.356,0,21.828,0s11.734,5.264,11.734,11.734-5.264,11.734-11.734,11.734Zm0-20.006c-4.563,0-8.272,3.711-8.272,8.272s3.709,8.271,8.272,8.271,8.271-3.71,8.271-8.271-3.711-8.272-8.271-8.272Z"/><path class="cls-3" d="m51.644,25.392c-5.02,0-9.106-4.085-9.106-9.106s4.085-9.106,9.106-9.106,9.104,4.084,9.104,9.106-4.084,9.106-9.104,9.106Zm0-14.749c-3.112,0-5.642,2.531-5.642,5.643s2.531,5.642,5.642,5.642,5.644-2.531,5.644-5.642-2.533-5.643-5.644-5.643Z"/></svg>